<mxfile host="app.diagrams.net" modified="2024-02-24T14:14:48.794Z" agent="Mozilla/5.0 (Macintosh; Intel Mac OS X 10_15_7) AppleWebKit/537.36 (KHTML, like Gecko) Chrome/121.0.0.0 Safari/537.36" version="23.1.5" etag="Sie6H1Az0WndkATfL7pA" type="github">
  <diagram name="Страница — 1" id="h7n7FPBHu5_982etlOUh">
    <mxGraphModel>
      <root>
        <mxCell id="0" />
        <mxCell id="1" parent="0" />
      </root>
    </mxGraphModel>
  </diagram>
</mxfile>
